<?xml version="1.0" encoding="UTF-8"?>
<svg id="Layer_2" data-name="Layer 2" xmlns="http://www.w3.org/2000/svg" viewBox="0 0 2515.42 2138.02">
  <defs>
    <style>
      .cls-1 {
        fill: #fff;
      }

      .cls-2 {
        fill: #170900;
      }
    </style>
  </defs>
  <path class="cls-2" d="M124.93,1446.35c6.86-1.39,13.77-2.56,20.71-3.5l-1.99.27c9.36-1.26,18.77-2.11,28.21-2.53s18.71-.55,28.02.05c5.1.33,10.18.92,15.25,1.6l-1.99-.27c18.24,2.47,36.76,6.36,55.23,4.26,2.05-.23,3.79-.68,5.3-2.2,1.3-1.3,2.28-3.44,2.2-5.3s-.72-3.95-2.2-5.3c-1.37-1.26-3.37-2.42-5.3-2.2-11.39,1.29-22.85.24-34.16-1.27l1.99.27c-14.75-1.99-29.4-4.61-44.32-4.89s-29.65.48-44.35,2.29c-8.91,1.09-17.78,2.49-26.58,4.27-3.85.78-6.43,5.55-5.24,9.23,1.32,4.08,5.1,6.08,9.23,5.24h0Z"/>
  <path class="cls-2" d="M272.65,1440.66c7.77-4.84,15.89-9.09,24.31-12.65l-1.79.76c12.22-5.13,25.03-8.8,38.16-10.57l-1.99.27c10.96-1.45,22.07-1.57,33.04-.1l-1.99-.27c10.04,1.38,19.87,4.04,29.22,7.98l-1.79-.76c6.26,2.66,12.29,5.88,17.94,9.68,1.41.95,2.79,1.93,4.15,2.94.31.23.62.47.94.71-1.88-1.41-.56-.43-.13-.09.66.53,1.32,1.06,1.97,1.61,2.6,2.18,5.08,4.5,7.42,6.94,1.18,1.23,2.32,2.49,3.42,3.77.55.65,1.1,1.3,1.63,1.96.25.31.5.63.75.94.13.16.27.32.38.49-.13-.19-1.02-1.35-.42-.54,2.13,2.87,4.17,5.81,6.11,8.81,3.93,6.07,7.57,12.32,11.62,18.3s8.88,12.31,14.48,17.39c5.03,4.56,10.68,8.51,16.77,11.54,12.4,6.17,25.93,9,39.67,10.05,13.36,1.02,26.79.26,40.11-.98,15.04-1.39,30.03-3.27,45.08-4.53,16.67-1.39,33.38-2.36,50.1-2.9,16.72-.54,33.45-.65,50.18-.34,16.81.32,33.61,1.06,50.37,2.24s33.35,2.76,49.95,4.78c4.07.49,8.14,1.02,12.21,1.56l-1.99-.27c23.75,3.19,47.39,7.24,70.85,12.16,21.8,4.57,43.49,9.81,64.73,16.54,11.88,3.76,23.61,8,35.09,12.85l-1.79-.76c16.61,7.04,32.68,15.37,47.73,25.34,3.28,2.17,8.44.75,10.26-2.69,1.99-3.76.81-7.94-2.69-10.26-14.18-9.4-29.27-17.36-44.87-24.12-16.06-6.96-32.55-12.81-49.34-17.76s-33.32-8.93-50.17-12.55c-18.01-3.88-36.12-7.24-54.32-10.09-18.78-2.94-37.64-5.37-56.55-7.26-18.41-1.84-36.87-3.16-55.35-3.96s-36.82-1.08-55.24-.84c-18.5.24-36.99.99-55.44,2.28-17.35,1.2-34.61,3.11-51.91,4.9-14.65,1.52-29.44,2.69-44.17,1.84-3.49-.2-6.98-.52-10.45-.99l1.99.27c-8.29-1.13-16.47-3.1-24.2-6.36l1.79.76c-3.41-1.45-6.71-3.14-9.86-5.1-1.59-.99-3.13-2.04-4.63-3.16-1.34-1,1.39,1.1.07.06-.34-.27-.67-.53-1-.81-.76-.63-1.51-1.27-2.24-1.93-3.11-2.81-5.9-5.92-8.51-9.2-.75-.94.37.49.42.55-.17-.21-.33-.44-.5-.65-.29-.38-.57-.76-.86-1.15-.69-.94-1.36-1.88-2.02-2.84-1.17-1.69-2.3-3.41-3.42-5.14-4.62-7.18-8.87-14.6-13.9-21.51s-11.01-13.58-17.82-19.14c-13.41-10.95-29.2-18.73-46.03-22.82-17.98-4.37-36.55-4.45-54.72-1.21-18.45,3.28-36.29,10.26-52.52,19.55-1.98,1.13-3.94,2.31-5.88,3.52-3.33,2.07-4.93,6.79-2.69,10.26s6.7,4.91,10.26,2.69h0Z"/>
  <path class="cls-2" d="M1033.47,1574.1c-3.99,1.65-8.17,2.68-12.45,3.26l1.99-.27c-10.26,1.3-20.68.16-30.88-1.2l1.99.27c-19.19-2.59-38.04-7.08-56.76-11.95-18.77-4.89-37.45-10.16-56.4-14.3-20.01-4.37-40.32-7.16-60.7-9.13-20.21-1.96-40.5-3.24-60.79-3.96s-40.72-.83-61.08-.34c-1.16.03-2.32.01-3.48.09-2.96.19-6.15,1.64-7.45,4.49-.86,1.88-1.33,3.71-.76,5.78.48,1.74,1.82,3.63,3.45,4.48,3.3,1.74,8.52,1.12,10.26-2.69l-2.04,1.98-1.79.76.32-.07-1.99.27c19.45-.53,38.91-.52,58.35.05s38.84,1.68,58.21,3.36c10.75.93,21.47,2.04,32.16,3.48l-1.99-.27c13.11,1.77,26.12,4.09,39.02,7.01s25.12,6.17,37.62,9.49c25.3,6.72,50.63,13.34,76.65,16.57,14.03,1.74,29.14,2.86,42.51-2.69,1.89-.78,3.41-1.61,4.48-3.45.94-1.61,1.34-3.98.76-5.78s-1.71-3.57-3.45-4.48-3.96-1.51-5.78-.76h0Z"/>
  <path class="cls-2" d="M987.15,1590.74c.22.38.41.76.59,1.15l-.76-1.79c.32.79.53,1.58.66,2.42l-.27-1.99c.11.94.09,1.87-.02,2.81l.27-1.99c-.17,1.07-.46,2.09-.86,3.09l.76-1.79c-.37.86-.81,1.69-1.32,2.48-.12.19-.26.37-.38.55-.46.71,1.12-1.35.56-.72-.34.38-.66.77-1.02,1.13-.32.32-.65.62-.99.92-.73.66.63-.5.73-.54-.19.09-.37.27-.55.39-.86.58-1.77,1.06-2.73,1.46l1.79-.76c-1.74.69-3.54,1.14-5.39,1.41l1.99-.27c-3.63.46-7.28.22-10.89-.25l1.99.27c-7.85-1.06-15.65-2.59-23.44-3.98-8.06-1.44-16.11-2.92-24.15-4.42-16.02-2.98-32.03-6.02-48.07-8.92-16.01-2.9-32.06-5.65-48.15-8.05s-33.17-4.61-49.83-6.15c-16.15-1.49-32.36-2.42-48.58-2.58-2.02-.02-4.04-.03-6.06-.02-3.92,0-7.68,3.44-7.5,7.5s3.3,7.51,7.5,7.5c22.93-.04,45.83,1.49,68.61,4.03,6.42.72,12.83,1.51,19.23,2.37l-1.99-.27c27.93,3.76,55.67,8.76,83.37,13.92,13.87,2.58,27.73,5.21,41.61,7.74,7.01,1.28,14.03,2.53,21.05,3.75s13.98,2.78,21.01,2.82c7.78.05,16.1-2.28,21.19-8.52,2.33-2.86,4.29-6.11,4.95-9.79.79-4.34.31-8.62-1.93-12.48-1.97-3.39-6.86-4.88-10.26-2.69s-4.8,6.63-2.69,10.26h0Z"/>
  <path class="cls-2" d="M939.02,1609.52c.3.28.57.58.85.89.79.86-1.08-1.62-.45-.57.36.59.69,1.17.96,1.8l-.76-1.79c.36.91.61,1.84.76,2.8l-.27-1.99c.17,1.29.15,2.58-.02,3.87l.27-1.99c-.21,1.44-.6,2.83-1.15,4.18l.76-1.79c-.41.98-.89,1.92-1.45,2.82-.28.45-.61.87-.9,1.31,1.44-2.16.35-.48-.16.06-.36.38-.74.75-1.14,1.1-.07.06-.61.48-.6.51-.03-.13,1.75-1.22.64-.52s-2.23,1.32-3.44,1.85l1.79-.76c-2.3.96-4.7,1.55-7.17,1.9l1.99-.27c-5.22.65-10.47.19-15.65-.51l1.99.27c-19.12-2.61-38.12-6.31-56.89-10.76s-37.53-9.81-55.91-15.98c-10.31-3.47-20.53-7.2-30.65-11.19-1.7-.67-4.27-.13-5.78.76s-3.04,2.69-3.45,4.48c-.44,1.92-.34,4.07.76,5.78s2.57,2.69,4.48,3.45c27.28,10.75,55.29,19.62,83.79,26.51,14.1,3.41,28.31,6.33,42.61,8.76,7.51,1.28,15.06,2.57,22.64,3.36,6.9.72,14.3.66,20.83-1.93,3.79-1.5,7.33-3.48,10.08-6.55,2.6-2.9,4.5-6.15,5.73-9.85,2.36-7.07.99-15.36-4.49-20.62-2.83-2.72-7.83-3.03-10.61,0s-3.03,7.71,0,10.61h0Z"/>
  <path class="cls-2" d="M900.7,1628.33c-.18.75-.41,1.47-.71,2.18l.76-1.79c-.44.99-1.01,1.85-1.6,2.75,1.37-2.1.46-.61-.08-.07-.42.43-.86.82-1.31,1.21s-1.22.68.61-.46c-.23.15-.45.32-.68.48-.46.32-.94.61-1.42.89-1.04.61-2.12,1.13-3.23,1.61l1.79-.76c-6.17,2.6-12.97,3.61-19.57,4.51l1.99-.27c-18.27,2.45-36.93,2.3-55.33,1.94-5.13-.1-10.26-.36-15.34-1.04l1.99.27c-5.95-.83-11.74-2.29-17.28-4.63l1.79.76c-9.58-4.11-18.07-10.22-26.72-15.95-4.39-2.9-8.84-5.72-13.52-8.14-5.5-2.84-11.27-5.18-17.11-7.22-6.12-2.14-12.36-3.94-18.6-5.73-3.77-1.08-8.33,1.32-9.23,5.24s1.2,8.07,5.24,9.23c9.05,2.6,18.11,5.22,26.8,8.88l-1.79-.76c11.03,4.69,20.63,11.6,30.61,18.1,10.3,6.72,21.26,12.33,33.51,14.34,13.4,2.2,27.13,1.82,40.66,1.73s27.49-.75,41.07-3c12.28-2.04,27.78-6.42,31.13-20.31.92-3.81-1.2-8.31-5.24-9.23s-8.24,1.16-9.23,5.24h0Z"/>
  <path class="cls-2" d="M797.43,1641.56c-1.06.51-2.12.99-3.2,1.46l1.79-.76c-7.41,3.12-15.26,4.96-23.21,6.04l1.99-.27c-7.04.92-14.13,1.28-21.22,1.41-3.55.07-7.09.08-10.64.08-3.68,0-7.36.01-11.01-.45l1.99.27c-2.7-.38-5.3-1.06-7.81-2.11l1.79.76c-5.57-2.42-10.58-5.99-15.98-8.77-5.93-3.05-12.09-5.67-18.33-8.03-5.66-2.14-11.41-4.02-17.19-5.78-3.04-.93-6.09-1.82-9.15-2.7s-6.43-2.25-9.68-2.24-6.5,1.68-8.13,4.62c-2.09,3.75-.91,8.96,3.05,10.98,2.77,1.42,5.88,1.45,8.63-.05,4.45-2.43,4.96-8.84,1.43-12.26-2.82-2.73-7.84-3.02-10.61,0s-3.01,7.69,0,10.61l-.98-1.29-1.02-3.79v.1c.35-1.26.69-2.52,1.03-3.79l2.47-2.48,1.79-.76c-.09.04-.19.06-.29.07l1.99-.27c-.11.01-.22.01-.34,0l1.99.27c-.11-.01-.22-.04-.33-.07l1.79.76c-.63-.3-.24,0,1.17.91l1.93,3.31-.05-.13.27,1.99v-.15c-.09.66-.18,1.33-.27,1.99l.05-.18-.76,1.79c-2.4,1.88-3.04,2.52-1.91,1.94l-1.79.76c.18-.07.37-.11.57-.13l-1.99.27c.33-.02.63-.01.95.02l-1.99-.27c1.64.26,3.26.85,4.86,1.31s3.2.92,4.8,1.38c3.42.99,6.83,2.01,10.22,3.08,6.7,2.11,13.33,4.43,19.81,7.15l-1.79-.76c6.73,2.85,13.11,6.22,19.4,9.94,3.52,2.08,7.17,4.01,11.07,5.28s8.25,1.7,12.39,1.84c7.14.24,14.35.1,21.49-.15,7.59-.27,15.18-.92,22.67-2.21,8.29-1.42,16.28-3.93,23.86-7.59,3.54-1.71,4.77-7.04,2.69-10.26-2.34-3.64-6.47-4.52-10.26-2.69h0Z"/>
  <path class="cls-2" d="M719.52,1649.3c-1.04.53-2.09,1.02-3.16,1.48l1.79-.76c-5.37,2.26-11.04,3.58-16.8,4.37l1.99-.27c-5.91.78-11.87,1.02-17.83,1.13-6.3.12-12.64.32-18.91-.48l1.99.27c-3.91-.53-7.68-1.54-11.33-3.06l1.79.76c-7.09-3.02-13.34-7.58-19.59-12.02-6.76-4.8-13.59-9.21-21.38-12.15l-1.99,14.73c.94.07,1.89.13,2.83.2,3.92.28,7.67-3.65,7.5-7.5-.19-4.3-3.3-7.2-7.5-7.5-.94-.07-1.89-.13-2.83-.2-3.72-.26-6.9,3.06-7.37,6.5-.52,3.89,1.83,6.89,5.37,8.23.6.23,1.19.46,1.78.71l-1.79-.76c12.74,5.39,22.59,15.61,34.98,21.61,3.62,1.75,7.42,3.28,11.35,4.17,4.65,1.05,9.46,1.47,14.22,1.56,8.01.15,16.13.02,24.11-.7,9.87-.88,19.44-2.87,28.33-7.38,3.5-1.78,4.8-6.99,2.69-10.26-2.31-3.58-6.51-4.6-10.26-2.69h0Z"/>
  <path class="cls-2" d="M663.17,1656.15c-4.37,1.15-8.74,2.3-13.11,3.45s-8.47,2.37-12.82,3l1.99-.27c-2.66.35-5.3.39-7.96.04l1.99.27c-2.88-.43-5.65-1.27-8.33-2.39l1.79.76c-3.64-1.56-7.06-3.58-10.34-5.79-1.71-1.15-3.39-2.36-5.06-3.57-.75-.55-1.5-1.1-2.24-1.65-.41-.31-.82-.62-1.24-.93-.65-.49.7.53.64.5-.3-.19-.58-.46-.86-.69-.74-.61-1.45-1.23-2.13-1.9-.37-.36-.72-.73-1.07-1.1-.2-.22-.38-.45-.58-.66-.64-.68.88,1.25.38.5-1.1-1.64-2.08-3.3-2.98-5.06-2.02-3.98-4.07-7.78-7.17-11.07-3.62-3.85-8.19-6.55-13.14-8.31-3.7-1.32-8.37,1.49-9.23,5.24-.96,4.21,1.28,7.82,5.24,9.23.5.18.99.36,1.47.57l-1.79-.76c1.39.6,2.73,1.31,3.99,2.14.27.18.54.38.81.56,1.23.83-1.39-1.19-.27-.21.65.56,1.29,1.12,1.89,1.73.51.52.98,1.06,1.45,1.61.98,1.12-1.04-1.5-.21-.27.23.33.46.66.68,1,.88,1.36,1.63,2.79,2.36,4.23,1.75,3.45,3.51,6.68,6.04,9.65s5.75,5.21,8.83,7.49c5.23,3.87,10.56,7.7,16.55,10.33,3.4,1.49,6.82,2.75,10.5,3.31,4.56.69,8.79.53,13.34-.26,4.1-.71,8.12-1.91,12.13-2.97s8.26-2.17,12.39-3.26c3.79-1,6.48-5.4,5.24-9.23s-5.16-6.31-9.23-5.24h0Z"/>
  <path class="cls-2" d="M117.94,1446.23c10.77-.19,21.51.71,32.18,2.14l-1.99-.27c13.14,1.78,26.16,4.32,39.23,6.54,10.61,1.8,21.35,2.92,31.9,5.05,5.65,1.14,11.24,2.64,16.57,4.86l-1.79-.76c3.04,1.29,5.98,2.79,8.74,4.61.67.44,1.32.9,1.96,1.37,1.37,1-1.27-1.03-.19-.16.29.23.58.47.87.71,1.35,1.13,2.63,2.35,3.84,3.63,2.7,2.86,7.92,2.93,10.61,0s2.88-7.56,0-10.61c-12.22-12.95-29.83-17.32-46.81-19.87-8.99-1.35-17.98-2.63-26.93-4.2-10.37-1.82-20.72-3.75-31.14-5.24-12.27-1.75-24.62-3.02-37.03-2.8-3.92.07-7.68,3.4-7.5,7.5s3.3,7.58,7.5,7.5h0Z"/>
  <path class="cls-2" d="M252.86,1481.72c12.39,19.02,25.28,38.08,41.66,53.94,3.9,3.78,8.09,7.24,12.07,10.93,1.93,1.79,3.8,3.65,5.51,5.64.42.48.8.99,1.22,1.47-1.52-1.74-.11-.13.23.36.77,1.1,1.48,2.23,2.15,3.39,2.76,4.8,4.91,9.87,8.31,14.28,3.62,4.68,8.3,8.05,13.11,11.41,1.11.77,2.22,1.55,3.3,2.36.18.14,1.28.97.21.15s.13.12.35.29c.57.47,1.13.95,1.67,1.45,1.02.94,1.93,1.96,2.84,3.01.98,1.13-.85-1.17-.26-.35.25.35.5.69.74,1.04.44.64.86,1.3,1.27,1.96,3.12,5.14,5.38,10.82,7.72,16.34l-.76-1.79c7.99,18.93,14.86,38.32,23.51,56.97,8.44,18.2,18.93,35.3,32.66,50.02,13.13,14.09,28.73,25.93,45.31,35.65,17.86,10.47,37.09,18.53,56.71,25.06,20.6,6.86,41.71,12.01,62.87,16.77,2.61.59,5.22,1.17,7.83,1.75,3.82.85,8.3-1.15,9.23-5.24.86-3.8-1.14-8.32-5.24-9.23-25.24-5.59-50.48-11.49-74.93-19.95-6.9-2.39-13.72-4.98-20.45-7.81l1.79.76c-9.63-4.07-19.04-8.64-28.11-13.83-4.45-2.55-8.81-5.24-13.07-8.08-2.1-1.4-4.17-2.84-6.22-4.31-.99-.72-1.98-1.44-2.96-2.18-.54-.41-1.09-.82-1.63-1.23-.37-.28-1.09-.87.55.42-.32-.25-.64-.5-.97-.75-8-6.29-15.51-13.22-22.3-20.81-1.67-1.87-3.31-3.78-4.89-5.73-.39-.47-.77-.95-1.15-1.43-.17-.21-.34-.43-.5-.64-.14-.18-.99-1.27-.16-.21s-.02-.03-.16-.21c-.16-.22-.33-.43-.49-.65-.41-.54-.81-1.09-1.21-1.64-3.23-4.42-6.21-9.02-8.99-13.74-6.15-10.46-11.28-21.48-16-32.65l.76,1.79c-5.42-12.86-10.31-25.94-15.64-38.84-2.82-6.82-5.52-13.84-9.08-20.31-1.87-3.39-4.14-6.65-6.84-9.42-2.56-2.62-5.57-4.81-8.55-6.91-1.27-.9-2.56-1.78-3.82-2.68-.66-.47-1.29-.98-1.95-1.44,2.09,1.44-.21-.2-.68-.6-1.22-1.05-2.38-2.19-3.42-3.42l-.27-.32c-.49-.61-.35-.44.4.52-.18-.35-.5-.7-.73-1.02-.47-.69-.92-1.4-1.35-2.12-1.73-2.9-3.15-5.97-4.78-8.93-1.88-3.42-4.14-6.58-6.7-9.53-4.51-5.2-9.98-9.44-15.01-14.11s-10.01-9.96-14.58-15.35c-1.3-1.53-2.58-3.08-3.83-4.65-.65-.81-1.3-1.63-1.94-2.45-.18-.23-.37-.47-.55-.7-.48-.62-.37-.47.35.46-.18-.24-.36-.47-.54-.71-2.45-3.2-4.82-6.45-7.15-9.74-4.65-6.58-9.1-13.31-13.5-20.07-2.14-3.28-6.74-4.96-10.26-2.69-3.28,2.11-4.98,6.75-2.69,10.26h0Z"/>
  <path class="cls-2" d="M544.32,1785.44c.19.93.35,1.85.48,2.79l-.27-1.99c1.11,8.55-.19,17.49,2.55,25.8s8.23,15.48,16.78,17.41c3.82.87,8.3-1.17,9.23-5.24.87-3.81-1.15-8.3-5.24-9.23-.78-.18-1.53-.41-2.27-.72l1.79.76c-.41-.18-2.51-1.01-2.6-1.5,0-.01,1.49,1.26.73.55-.2-.19-.42-.37-.62-.56-.37-.35-.72-.72-1.06-1.11-.14-.16-.27-.41-.44-.53.09.07,1.11,1.51.55.69-.3-.43-.59-.86-.86-1.31-.58-.96-1.08-1.96-1.52-2.99l.76,1.79c-.99-2.38-1.61-4.85-1.95-7.4l.27,1.99c-.96-7.73-.23-15.52-1.83-23.19-.8-3.85-5.54-6.43-9.23-5.24-4.07,1.32-6.1,5.1-5.24,9.23h0Z"/>
  <path class="cls-2" d="M537.82,1975.43c5.14-25.52,11.17-50.86,18.11-75.95,6.94-25.09,14.77-49.93,23.48-74.46,4.89-13.76,10.05-27.42,15.48-40.98.68-1.69.12-4.28-.76-5.78s-2.69-3.04-4.48-3.45c-1.92-.44-4.07-.34-5.78.76s-2.68,2.57-3.45,4.48c-9.68,24.16-18.51,48.67-26.45,73.46-7.94,24.79-14.99,49.87-21.14,75.16-3.45,14.19-6.61,28.45-9.49,42.77-.4,1.99-.3,3.98.76,5.78.91,1.56,2.69,3.04,4.48,3.45,3.73.85,8.4-1.13,9.23-5.24h0Z"/>
  <path class="cls-2" d="M539.25,1975.56c11.26-16.46,19.91-34.45,27.46-52.85,7.53-18.36,13.86-37.18,20.36-55.91,1.95-5.63,3.91-11.26,5.86-16.89.93-2.67,1.1-5.49-.42-8.01-2.14-3.53-6.55-5.04-10.36-3.43-3.4,1.44-5.35,4.93-4.86,8.57.42,3.11,2.68,6.43,6.01,6.96,2.06.33,3.91.34,5.78-.76,1.56-.91,3.04-2.69,3.45-4.48.44-1.92.34-4.07-.76-5.78-.99-1.54-2.6-3.15-4.48-3.45l-.21-.03,1.79.76,1.22.9,1.93,3.31c-.07-.13-.11-.27-.12-.42l.27,1.99v-.22c-.08.66-.16,1.33-.25,1.99l.07-.21-.76,1.79.12-.17-2.69,2.69.18-.12-1.79.76.28-.05h-3.99l.27.06-1.79-.76-2.11-2.08-.76-1.79.06.28v-3.99c-.19,1.27-.84,2.58-1.26,3.8-.49,1.41-.98,2.81-1.47,4.22-.95,2.74-1.9,5.47-2.85,8.21-1.86,5.37-3.73,10.73-5.59,16.1-3.42,9.84-6.87,19.67-10.56,29.41-2.1,5.53-4.28,11.03-6.57,16.48l.76-1.79c-6.96,16.49-15.03,32.54-25.15,47.33-2.22,3.25-.72,8.46,2.69,10.26,3.81,2.01,7.89.77,10.26-2.69h0Z"/>
  <path class="cls-2" d="M546.74,2024.37c-2.27-17.59-2.19-35.43.16-53.01l-.27,1.99c2.02-14.82,5.64-29.39,10.85-43.42.64-1.73.15-4.24-.76-5.78s-2.69-3.04-4.48-3.45c-4.25-.97-7.76,1.29-9.23,5.24-9.07,24.42-13.43,50.72-12.89,76.77.15,7.24.7,14.47,1.63,21.66.27,2.07.66,3.77,2.2,5.3,1.3,1.3,3.44,2.28,5.3,2.2s3.95-.72,5.3-2.2c1.24-1.36,2.44-3.38,2.2-5.3h0Z"/>
  <path class="cls-2" d="M547.42,2028.43c8.55-17.85,16.58-35.95,24.14-54.25,7.34-17.77,14.19-35.74,20.54-53.89,3.59-10.27,7.02-20.61,10.29-30.99,1.18-3.74-1.39-8.35-5.24-9.23-4.08-.93-7.96,1.23-9.23,5.24-7.69,24.4-16.27,48.52-25.73,72.29-2.64,6.64-5.36,13.26-8.14,19.85l.76-1.79c-6.43,15.22-13.22,30.29-20.36,45.2-.88,1.85-1.32,3.74-.76,5.78.48,1.74,1.82,3.63,3.45,4.48,3.35,1.77,8.45,1.09,10.26-2.69h0Z"/>
  <path class="cls-2" d="M567.77,2060.75c-.79-3.63-1.43-7.28-1.93-10.96l.27,1.99c-1.87-14.25-1.46-28.67.45-42.89l-.27,1.99c2.17-15.88,6.13-31.47,10.98-46.73,1.39-4.38,2.86-8.75,4.38-13.09,1.3-3.71-1.47-8.37-5.24-9.23-4.19-.95-7.84,1.27-9.23,5.24-10.18,29.08-18.28,59.84-17.22,90.9.31,8.98,1.41,17.97,3.33,26.75.84,3.84,5.51,6.44,9.23,5.24,4.04-1.31,6.14-5.11,5.24-9.23h0Z"/>
  <path class="cls-2" d="M556.37,2060.83c1.96,3.99,7.27,5.85,11.42,4.59s6.62-4.49,8.06-8.44c.9-2.48,1.54-5.07,2.29-7.6.8-2.7,1.6-5.4,2.4-8.11,3.18-10.73,6.35-21.46,9.5-32.2,6.34-21.55,12.63-43.11,18.89-64.69,3.51-12.1,7-24.21,10.48-36.31,1.08-3.77-1.32-8.33-5.24-9.23s-8.07,1.2-9.23,5.24c-5.61,19.52-11.26,39.02-16.94,58.52-5.68,19.5-11.4,38.98-17.14,58.46-1.6,5.41-3.19,10.81-4.8,16.21-.82,2.78-1.65,5.56-2.47,8.34-.76,2.56-1.39,5.21-2.35,7.7l.76-1.79c-.18.41-.54.87-.66,1.29.85-1.02,1.01-1.25.49-.7,1.12-.77,1.36-.98.74-.63l1.79-.76c-.29.12-.55.2-.86.27l1.99-.27c-.31.04-.58.04-.89.02l1.99.27c-.3-.05-.54-.12-.82-.24l1.79.76c-.66-.4-.39-.1.82.91.99,1.21,1.3,1.48.93.79-1.73-3.53-7.03-4.78-10.26-2.69-3.62,2.33-4.54,6.49-2.69,10.26h0Z"/>
  <path class="cls-2" d="M570.92,2046.13c9.88,7.16,22.81,14.02,35.09,8.84,12.13-5.12,15.83-19.24,19.5-30.66,7.81-24.3,12.58-49.58,14.42-75.04,1.01-13.99,1.07-28.05.18-42.05-.25-3.91-3.27-7.69-7.5-7.5-3.85.17-7.76,3.31-7.5,7.5,1,15.87.79,31.81-.64,47.64-.41,4.5-.91,8.99-1.51,13.47l.27-1.99c-2.47,18.31-6.53,36.39-12.18,53.98-1.49,4.63-2.99,9.3-4.88,13.79l.76-1.79c-.5,1.17-1.04,2.33-1.65,3.45-.3.55-.62,1.1-.95,1.63-.2.32-.41.63-.62.94-.17.25-.89,1.19-.08.14s.04-.07-.12.1c-.2.23-.41.46-.62.68-.43.45-.89.84-1.35,1.26-.58.54,1.63-1.1.49-.38-.26.17-.52.35-.78.51-.62.38-1.26.7-1.92.99l1.79-.76c-1.3.53-2.63.89-4.02,1.08l1.99-.27c-1.52.17-3.02.15-4.54-.03l1.99.27c-2.52-.35-4.94-1.09-7.28-2.06l1.79.76c-4.5-1.92-8.62-4.58-12.57-7.44-1.49-1.08-4.08-1.22-5.78-.76s-3.63,1.82-4.48,3.45c-.92,1.74-1.38,3.85-.76,5.78s1.78,3.28,3.45,4.48h0Z"/>
  <path class="cls-2" d="M551.15,1896.9c-1.5-17.09-2.92-34.26-2.12-51.43.23-4.87.64-9.72,1.28-14.55l-.27,1.99c1.42-10.48,3.96-20.79,8.07-30.55l-.76,1.79c.17-.41.35-.82.53-1.22.84-1.92,1.34-3.67.76-5.78-.48-1.74-1.82-3.63-3.45-4.48-1.74-.92-3.85-1.38-5.78-.76-1.73.56-3.72,1.7-4.48,3.45-2.79,6.4-5.12,12.95-6.78,19.74s-2.7,13.7-3.41,20.64c-1.32,12.97-1.09,26.06-.31,39.06.44,7.38,1.07,14.74,1.71,22.1.18,2.02.72,3.82,2.2,5.3,1.3,1.3,3.44,2.28,5.3,2.2,3.77-.17,7.87-3.31,7.5-7.5h0Z"/>
  <path class="cls-2" d="M570.83,1693.06c7.87,13.91,18.12,26.59,30.14,37.13,2.43,2.13,6.18,3.05,9.09,1.17,1.08-.7,1.99-1.61,2.69-2.69,1.16-1.8,1.03-3.78.76-5.78-.63-4.57-1.27-9.14-1.9-13.72l-14.46,3.99c6.15,16,12.26,32.03,17.79,48.25,5.49,16.1,10.43,32.42,14.2,49.02,2.12,9.34,3.87,18.76,5.15,28.25l-.27-1.99c1.43,10.8,2.25,21.69,2.28,32.59.03,11.41-.93,22.78-1.5,34.16-.57,11.39-.49,22.73.67,34.08,1.21,11.75,3.18,23.41,5.18,35.05,2.17,12.67,4.19,25.36,5.9,38.1l-.27-1.99c2.99,22.27,5.2,44.64,6.6,67.07.4,6.38.73,12.77,1,19.16.17,3.91,3.33,7.69,7.5,7.5,3.92-.18,7.68-3.3,7.5-7.5-.83-19.58-2.26-39.13-4.3-58.63-2.08-19.91-4.78-39.76-8.08-59.51-1.81-10.83-3.8-21.64-5.26-32.52l.27,1.99c-1.07-8.05-1.87-16.14-2.06-24.26s.19-16.15.66-24.21,1.04-16.46,1.16-24.7c.11-7.65-.17-15.3-.8-22.92-2.59-31.43-10.66-62.04-20.77-91.81-5.62-16.53-11.84-32.85-18.1-49.15-.72-1.88-1.66-3.43-3.45-4.48-1.61-.94-3.98-1.34-5.78-.76s-3.57,1.71-4.48,3.45c-1.01,1.91-1.05,3.66-.76,5.78.63,4.57,1.27,9.14,1.9,13.72,4.18-2.43,8.36-4.86,12.54-7.3-5.73-5.02-11.04-10.51-15.86-16.41-.59-.72-1.17-1.46-1.75-2.19-.35-.45-.18-.23.51.67-.18-.23-.35-.46-.52-.68-.26-.34-.52-.69-.78-1.03-1.12-1.5-2.2-3.02-3.25-4.56-2.19-3.2-4.23-6.5-6.14-9.88s-6.89-4.86-10.26-2.69-4.76,6.61-2.69,10.26h0Z"/>
  <path class="cls-2" d="M638.05,1672.87c.93,2.05,1.84,4.11,2.72,6.19l-.76-1.79c8.11,19.26,13.79,39.46,17.56,60,1.07,5.84,1.99,11.7,2.79,17.58l-.27-1.99c2.94,22.01,4.04,44.22,4.08,66.41.04,23.73-1.15,47.43-2.44,71.12-1.32,24.24-2.77,48.49-3.2,72.77-.22,12.12-.18,24.25.26,36.37s1.34,23.96,2.29,35.92c1.89,23.73,3.88,47.62,1.75,71.4-.26,2.89-.58,5.78-.97,8.66l.27-1.99c-.37,2.73-.8,5.44-1.3,8.15h14.46c-2.88-15.64-6.38-31.16-10.5-46.51-1.02-3.79-5.39-6.48-9.23-5.24s-6.33,5.17-5.24,9.23c4.12,15.36,7.62,30.88,10.5,46.51.57,3.08,4.17,5.64,7.23,5.51,1.33-.06,2.61-.4,3.79-1.02,1.48-.78,3.14-2.8,3.45-4.48,5.62-30.87,3.01-62.09.56-93.13-1.21-15.35-2.17-30.71-2.38-46.11-.22-15.68.14-31.36.77-47.02,1.25-31.12,3.56-62.2,4.51-93.34.88-28.69.55-57.49-2.76-86.03s-9.39-57.06-20.3-83.84c-1.49-3.66-3.04-7.29-4.68-10.89-.73-1.61-2.85-3-4.48-3.45-1.8-.49-4.19-.27-5.78.76s-3.01,2.57-3.45,4.48c-.47,2.08-.12,3.85.76,5.78h0Z"/>
  <path class="cls-2" d="M475.87,1485.69c1.23-2.53,1.7-5.49.08-8.04s-3.99-3.75-6.82-3.89c-3.83-.19-7.66,2.66-8.66,6.31-1.43,5.2,2.61,9.89,7.62,10.56,3.34.45,6.17-.92,8.99-2.5,7.26-4.06,14.52-8.14,21.68-12.37,14.77-8.73,29.16-18.17,42.36-29.18,6.35-5.29,12.38-10.97,17.91-17.12,6.05-6.73,11.43-14,16.33-21.6,2.51-3.89,4.96-7.82,7.56-11.66,1.28-1.88,2.6-3.73,3.96-5.55.75-1-.26.33-.34.44.18-.24.37-.48.56-.71.33-.42.66-.83,1-1.24.77-.94,1.57-1.86,2.38-2.76,6.13-6.84,13.22-12.73,20.32-18.53,3.46-2.83,6.94-5.63,10.45-8.41,1.78-1.41,3.56-2.81,5.35-4.21.81-.63,1.62-1.26,2.43-1.89.23-.18.46-.36.69-.54-.09.07-1.46,1.12-.48.37.46-.36.93-.71,1.39-1.07,7.08-5.44,14.24-10.77,21.47-16,14.33-10.37,28.95-20.34,43.82-29.93,14.99-9.67,30.23-18.96,45.68-27.9s30.89-17.39,46.6-25.58c15.87-8.27,31.91-16.22,48.1-23.86s32.42-14.95,48.81-22.02c3.98-1.72,7.97-3.42,11.97-5.1l-1.79.76c15.17-6.4,30.43-12.59,45.76-18.58s30.72-11.79,46.17-17.42c4.27-1.56,8.55-3.1,12.83-4.64,3.56-1.27,7.04-2.66,10.81-3.16l-1.99.27c1.89-.23,3.79-.29,5.68-.04l-1.99-.27c1.07.16,2.11.42,3.12.84l-1.79-.76c.34.15.68.32,1,.52.14.08.27.2.41.27.47.24-1.47-1.36-.86-.65.09.11.23.25.34.34.63.48-.71-.85-.72-.96,0,.23.49.82.61,1.06l-.76-1.79c.24.58.4,1.16.49,1.78l-.27-1.99c.06.57.06,1.11.01,1.68l.27-1.99c-.12.85-.34,1.64-.65,2.44l.76-1.79c-.57,1.32-1.3,2.54-2.11,3.73-.37.55-.76,1.09-1.15,1.62-.14.19-.96,1.26-.13.19s-.23.28-.39.48c-1.66,2.03-3.45,3.95-5.35,5.76-.95.9-1.93,1.78-2.93,2.63-.5.43-1.01.85-1.52,1.26-.3.25-.61.52-.93.74l.89-.69c-.21.16-.42.32-.63.48-2.17,1.64-4.42,3.17-6.72,4.62-9.76,6.15-20.36,10.86-30.86,15.57-6.89,3.09-13.81,6.09-20.76,9.03l1.79-.76c-20.64,8.71-41.53,16.82-62.46,24.8-5.92,2.25-11.84,4.5-17.76,6.74-1.87.71-3.44,1.66-4.48,3.45-.94,1.61-1.34,3.98-.76,5.78,1.16,3.57,5.3,6.73,9.23,5.24,29.45-11.16,58.89-22.35,87.84-34.77,13.04-5.59,26.23-11.16,38.7-17.96,11.94-6.52,22.99-14.75,30.89-25.96,2.51-3.56,4.62-7.8,4.23-12.28s-2.45-8.01-6.07-10.59c-5.09-3.63-12.17-3.32-18-2.18-2.81.55-5.47,1.61-8.16,2.57-3.31,1.19-6.63,2.38-9.94,3.58-6.49,2.35-12.96,4.73-19.42,7.14-26.63,9.94-53.06,20.41-79.24,31.48-25.84,10.93-51.42,22.49-76.62,34.81-25.02,12.23-49.67,25.21-73.83,39.05-24.11,13.82-47.72,28.5-70.69,44.14-23.38,15.93-46.09,32.86-67.98,50.8-5.64,4.62-11.24,9.32-16.34,14.53-5.38,5.51-10.01,11.68-14.25,18.1-3.95,5.98-7.63,12.14-11.84,17.95-.48.66-.97,1.32-1.46,1.97-.25.33-.5.64-.74.98,1.2-1.67.71-.92.42-.55-1.09,1.39-2.2,2.76-3.34,4.11-2.09,2.49-4.27,4.9-6.52,7.25-4.41,4.6-9.09,8.93-13.96,13.02-1.25,1.05-2.51,2.08-3.78,3.1-.53.43-1.06.85-1.6,1.27-.32.25-.64.5-.97.76-.61.48-.43.33.55-.42-.22.17-.43.33-.65.5-2.61,1.99-5.26,3.93-7.94,5.81-10.69,7.53-21.9,14.3-33.24,20.81-2.74,1.57-5.5,3.13-8.25,4.69s-5.28,3.23-8.06,4.45l1.79-.76c-.42.16-.83.28-1.27.36l1.99-.27c-.2.03-.41.03-.61.02l1.99.27c-.19-.01-.38-.06-.56-.13l1.79.76c-1.14-.6-.5.06,1.91,2l.76,1.79-.05-.16.27,1.99v-.15c-.09.66-.18,1.33-.27,1.99l.04-.14-.76,1.79c-.57.92-1.32,1.66-2.25,2.22.1-.06.21-.11.32-.16l-1.79.76c.11-.04.22-.07.34-.09l-1.99.27c.1-.02.21-.02.31-.02l-1.99-.27c.08,0,.17.03.24.06l-3.31-1.93-1.04-1.36-1.02-3.79v.11c.1-.66.19-1.33.28-1.99l-.03.14.76-1.79-.08.17c-1.71,3.53-1.08,8.27,2.69,10.26,3.36,1.78,8.44,1.08,10.26-2.69h0Z"/>
  <path class="cls-2" d="M1011.26,1183.51c1.73-.64,3.5-1.11,5.33-1.38l-1.99.27c1.82-.24,3.63-.26,5.46-.03l-1.99-.27c1.38.22,2.71.58,4,1.12l-1.79-.76c.69.31,1.31.68,1.96,1.06,1.14.67-1.32-1.17-.4-.33.3.28.61.54.9.84.25.25.47.52.7.78.52.58-1.19-1.68-.34-.39.42.63.77,1.3,1.07,1.99l-.76-1.79c.39.96.66,1.94.8,2.97l-.27-1.99c.08.8.08,1.57,0,2.37l.27-1.99c-.12.84-.34,1.61-.66,2.4l.76-1.79c-.27.6-.59,1.13-.92,1.69-.25.44-.88.92.49-.58-.17.19-.33.4-.5.59-.44.49-.9.95-1.39,1.39s-2.28,1.78-.32.35c-2.16,1.57-4.35,3.09-6.57,4.57-4.43,2.94-8.97,5.73-13.58,8.38-9.41,5.41-19.13,10.27-29,14.78-5.58,2.55-11.2,5-16.85,7.38l1.79-.76c-22.41,9.45-45.22,17.97-67.33,28.13-6.1,2.81-12.14,5.74-18.1,8.86-3.48,1.82-4.81,6.97-2.69,10.26,2.29,3.55,6.54,4.64,10.26,2.69,11.66-6.1,23.67-11.51,35.79-16.62l-1.79.76c21.93-9.25,44.24-17.6,65.9-27.48,10.46-4.77,20.76-9.92,30.71-15.7,4.97-2.89,9.85-5.94,14.61-9.18,5.64-3.83,11.74-7.99,13.62-14.96,2.15-7.96-1.97-15.97-8.5-20.46s-15.58-4.26-22.67-1.64c-1.87.69-3.45,1.68-4.48,3.45-.94,1.61-1.34,3.98-.76,5.78,1.16,3.6,5.29,6.69,9.23,5.24h0Z"/>
  <path class="cls-2" d="M1013.01,1221.36c3.92.47,7.83.94,11.75,1.41l-5.3-2.2c.88.9-.95-1.55-.46-.51l-.76-1.79c.07.18.12.36.15.55l-.27-1.99c.03.3.04.57,0,.88l.27-1.99c-.07.42-.19.81-.34,1.21l.76-1.79c-.14.31-.3.62-.48.91-.05.08-.28.53-.4.6-.14.08,1.18-1.36.59-.8-.27.26-.5.55-.78.81-.13.13-.27.25-.41.38-.89.83,1.25-.86.53-.39-1.78,1.16-3.51,2.43-5.27,3.64-3.62,2.5-7.25,5-10.87,7.49-7.25,5-14.49,9.99-21.74,14.99-14.23,9.81-28.33,19.88-42.78,29.37-7.82,5.13-15.9,9.79-24.52,13.45l1.79-.76c-9.03,3.8-18.39,6.72-27.65,9.89-9.19,3.14-18.3,6.49-27.33,10.04-18.45,7.27-36.59,15.34-54.3,24.26-9.78,4.93-19.43,10.11-28.94,15.54-3.41,1.95-4.87,6.88-2.69,10.26s6.61,4.77,10.26,2.69c17-9.7,34.44-18.62,52.27-26.7,5.09-2.31,10.22-4.55,15.37-6.72l-1.79.76c13.46-5.67,27.1-10.88,40.92-15.6,14.23-4.86,28.64-9.33,41.85-16.65s25.18-16.25,37.47-24.73,25.43-17.53,38.15-26.3c3.56-2.45,7.11-4.9,10.67-7.35,1.78-1.23,3.56-2.45,5.33-3.68s3.71-2.53,5.18-4.23c1.65-1.9,3.12-4.09,3.61-6.61.71-3.64-.21-7.04-2.81-9.73s-6.84-2.38-10.2-2.78l-6.86-.82c-1.77-.21-4.1.99-5.3,2.2-1.3,1.3-2.28,3.44-2.2,5.3s.72,3.95,2.2,5.3c1.56,1.43,3.21,1.95,5.3,2.2h0Z"/>
  <path class="cls-2" d="M975.84,1266.17c1.76-1.19,3.53-2.35,5.47-3.23l-1.79.76c1.16-.49,2.33-.84,3.57-1.01l-1.99.27c.65-.06,1.28-.08,1.93-.03l-1.99-.27c.7.1,1.36.28,2.02.54l-1.79-.76c.43.19.83.43,1.24.65,1.08.6-1.33-1.25-.43-.32.68.7.32.81-.28-.5.18.39.46.74.63,1.15l-.76-1.79c.15.41.26.81.32,1.24l-.27-1.99c.03.33.03.64,0,.97l.27-1.99c-.07.5-.2.94-.38,1.41l.76-1.79c-.4.85-.93,1.6-1.5,2.35-.17.22-.33.44-.5.66.06-.07,1.16-1.49.41-.54-.34.43-.68.87-1.03,1.3-1.29,1.62-2.6,3.22-3.94,4.79-2.67,3.14-5.45,6.2-8.31,9.18-5.68,5.9-11.7,11.45-17.99,16.69-1.59,1.32-3.19,2.63-4.81,3.91-.38.3-.76.6-1.14.9-.27.21-1.55,1.21-.55.43,1.06-.82-.31.24-.55.42-.49.38-.99.75-1.49,1.13-3.26,2.45-6.58,4.83-9.94,7.14-6.86,4.72-13.92,9.15-21.11,13.35-14.82,8.65-30.21,16.26-45.82,23.37-17.11,7.8-34.47,15.01-51.75,22.42s-34.31,14.95-50.97,23.47c-2.1,1.07-4.19,2.16-6.27,3.27-3.47,1.84-4.82,6.95-2.69,10.26,2.28,3.53,6.55,4.66,10.26,2.69,18.69-9.9,38.03-18.5,57.46-26.83s38.86-16.38,57.96-25.3c17.18-8.02,34.04-16.77,50.08-26.89,16.04-10.12,31.36-21.63,44.97-34.86,6.61-6.43,12.81-13.29,18.48-20.57,1.98-2.55,4.24-5.09,4.83-8.38.74-4.19-.48-8.04-3.3-11.18-4.34-4.83-11.58-5.87-17.43-3.5-2.69,1.09-5.06,2.44-7.45,4.06-1.63,1.11-2.91,2.54-3.45,4.48-.49,1.8-.27,4.19.76,5.78,2.08,3.22,6.79,5.05,10.26,2.69h0Z"/>
  <path class="cls-2" d="M906.54,1339.7c-1.52,2-.82,1.04-.41.63.54-.54,1.1-.6-.65.44.49-.29.94-.6,1.46-.84l-1.79.76c.79-.33,1.6-.55,2.45-.68l-1.99.27c.97-.12,1.93-.1,2.9.02l-1.99-.27c1.09.16,2.13.46,3.15.88l-1.79-.76c.55.24,1.08.51,1.59.83.25.16.49.35.74.5-1.97-1.24-1.02-.81-.49-.31.22.21.41.43.62.64.98,1.01-.79-1.24-.45-.58s.75,1.27,1.05,1.97l-.76-1.79c.41,1.03.7,2.09.87,3.18l-.27-1.99c.18,1.36.17,2.7.02,4.06l.27-1.99c-.24,1.77-.72,3.46-1.4,5.1l.76-1.79c-.36.82-.75,1.62-1.21,2.39-.23.38-.46.76-.71,1.13-.14.21-.3.41-.44.62-.46.67,1.31-1.56.33-.45-1.33,1.52-2.76,2.85-4.29,4.16-.62.53.77-.61.7-.54-.17.18-.46.34-.67.49-.39.29-.79.56-1.19.84-.86.59-1.74,1.15-2.63,1.69-1.79,1.08-3.62,2.09-5.46,3.08-8.03,4.33-16.08,8.65-24.14,12.93-16.12,8.56-32.34,16.94-48.83,24.78-9.31,4.43-18.7,8.68-28.2,12.69l1.79-.76c-17.26,7.27-34.88,13.73-52.88,18.93-3.77,1.09-6.5,5.34-5.24,9.23s5.19,6.4,9.23,5.24c15.84-4.58,31.39-10.12,46.66-16.35s31.08-13.43,46.27-20.89,29.51-14.97,44.11-22.76c7.13-3.8,14.3-7.55,21.36-11.48s14.36-9.02,17.98-16.51c3.95-8.19,4.31-18.4-2.24-25.43-5.44-5.83-15.12-7.64-22.1-3.63-2.13,1.22-3.56,2.86-5.02,4.77-1.1,1.44-1.21,4.13-.76,5.78.48,1.74,1.82,3.63,3.45,4.48,1.74.92,3.85,1.38,5.78.76s3.23-1.8,4.48-3.45h0Z"/>
  <path class="cls-2" d="M820.5,1416.67c1.13-.27,2.27-.49,3.42-.66l-1.99.27c1.91-.25,3.83-.34,5.75-.11l-1.99-.27c.98.14,1.93.36,2.86.72l-1.79-.76c.34.15.68.3,1.01.49.16.09.31.2.47.29.92.55-1.31-1.19-.77-.58.25.28,1.15,1.32.24.16s-.04.1.14.48l-.76-1.79c.26.64.43,1.27.53,1.94l-.27-1.99c.08.88.05,1.72-.07,2.59l.27-1.99c-.36,2.16-1.13,4.23-1.97,6.24l.76-1.79c-.93,2.16-2.03,4.24-3.29,6.23-.58.91-1.18,1.81-1.82,2.68-.15.21-.3.41-.45.62-.83,1.14.97-1.22.36-.46-.4.5-.8,1-1.21,1.49-3.05,3.63-6.51,6.91-10.13,9.96-.91.76-1.82,1.51-2.75,2.25-.41.33-.83.65-1.24.98-.94.73.53-.41.58-.45-.31.25-.63.48-.94.72-1.93,1.47-3.89,2.9-5.86,4.32-4.46,3.21-8.92,6.43-13.53,9.42-5.08,3.3-10.35,6.25-15.93,8.61l1.79-.76c-21.81,9.15-45.96,10.04-68.04,18.3-6.6,2.47-13.03,5.46-18.89,9.39-3.25,2.18-4.98,6.71-2.69,10.26,2.09,3.24,6.78,5.03,10.26,2.69,4.18-2.8,8.62-5.14,13.25-7.11l-1.79.76c22.82-9.6,48.28-10.1,71.16-19.52,6.76-2.79,13.12-6.16,19.23-10.18,5.59-3.67,11.03-7.59,16.4-11.57,10.31-7.63,20.65-16.12,26.83-27.62,4.1-7.63,7.96-18.68.35-25.55-5.84-5.27-14.29-4.87-21.46-3.15-3.82.92-6.46,5.46-5.24,9.23,1.29,3.97,5.14,6.22,9.23,5.24h0Z"/>
  <path class="cls-2" d="M346.44,1466.82c-2.51.96-5.09,1.7-7.75,2.1l1.99-.27c-1.94.25-3.87.31-5.81.08l1.99.27c-1.51-.21-2.95-.58-4.36-1.16l1.79.76c-.76-.34-1.44-.73-2.14-1.16-1.08-.66,1.41,1.26.5.38-.27-.26-.56-.51-.82-.78-.09-.09-.8-.77-.76-.85-.02.05,1.29,1.8.4.47-.42-.63-.77-1.3-1.08-1.99l.76,1.79c-.41-.98-.71-1.99-.88-3.04l.27,1.99c-.12-.92-.14-1.84-.02-2.76l-.27,1.99c.11-.71.29-1.38.55-2.05l-.76,1.79c.19-.43.41-.83.64-1.23.65-1.17-.5.6-.5.6-.02-.12.51-.56.59-.63.16-.16.34-.3.51-.46.64-.58-1.57,1.06-.56.47.49-.29.98-.56,1.5-.8l-1.79.76c1.3-.55,2.65-.87,4.05-1.06l-1.99.27c2.45-.29,4.9-.17,7.34.14l-1.99-.27c1.74.23,3.43.58,5.06,1.25l-1.79-.76c.64.29,1.22.64,1.83,1,.75.45-1.4-1.21-.5-.39.27.25.54.49.8.76.21.22.41.46.61.69.58.66-1.04-1.52-.41-.48.39.63.74,1.26,1.04,1.94l-.76-1.79c.37.92.63,1.84.78,2.82l-.27-1.99c.12.98.12,1.94.01,2.93l.27-1.99c-.15.98-.39,1.91-.75,2.83l.76-1.79c-.21.51-.45,1.01-.72,1.48-.15.27-.33.52-.49.78-.63,1.03.99-1.13.39-.5-.38.4-.77.79-1.16,1.18-.73.73.51-.52.66-.49-.07-.01-.85.55-.93.6-3.37,2.01-4.9,6.84-2.69,10.26s6.65,4.84,10.26,2.69c7.6-4.52,11.65-14.36,8.34-22.79-1.69-4.29-4.61-8.17-8.78-10.34s-8.5-2.74-12.94-2.91c-4.08-.15-8.1.53-11.81,2.24-4.01,1.85-6.97,5.37-8.41,9.5-2.75,7.87,1.52,16.45,7.84,21.13,7.48,5.53,18.18,4.43,26.36,1.28,1.88-.72,3.43-1.66,4.48-3.45.94-1.61,1.34-3.98.76-5.78-1.15-3.56-5.3-6.74-9.23-5.24h0Z"/>
  <path class="cls-2" d="M335.86,1454.45c.51-.1,1.02-.19,1.54-.26l-1.99.27c2.07-.26,4.14-.26,6.22-.01l-1.99-.27c2.2.3,4.33.87,6.39,1.71l-1.79-.76c1.32.56,2.59,1.22,3.79,1.99.33.21.64.44.97.66,1.21.8-1.37-1.18-.28-.22.54.47,1.08.93,1.58,1.44s.96,1.02,1.42,1.56c.86,1-1.02-1.47-.23-.31.18.26.37.52.55.79.81,1.23,1.5,2.53,2.09,3.87l-.76-1.79c.84,2.01,1.43,4.1,1.75,6.26l-.27-1.99c.29,2.16.3,4.33.03,6.49l.27-1.99c-.06.38-.12.76-.18,1.14-.37,2.02-.32,3.95.76,5.78.91,1.56,2.69,3.04,4.48,3.45,3.67.83,8.48-1.11,9.23-5.24,1.43-7.92.21-16.18-4.13-23.07s-11.26-11.93-19.17-13.79c-4.75-1.12-9.46-1.12-14.23-.17-3.86.77-6.42,5.57-5.24,9.23,1.33,4.1,5.1,6.06,9.23,5.24h0Z"/>
  <path class="cls-2" d="M247.1,1463.26l-.08.06,3.31-1.93-.07.02h3.99l-.07-.02,1.79.76-.06-.05,2.69,2.69s-.07-.1-.09-.16l.76,1.79-.03-.1.27,1.99c-.01-.07-.02-.14,0-.21l-.27,1.99.02-.1-.76,1.79.05-.08-1.17,1.52.07-.06-3.31,1.93.1-.04-1.99.27h.18c-.66-.1-1.33-.19-1.99-.28l.17.04-1.79-.76c.11.04.21.11.3.19l-1.52-1.17c.09.09.18.18.25.29l-1.17-1.52c.67.98,1.2,2.07,1.78,3.1.63,1.12,1.27,2.24,1.9,3.35,1.25,2.2,2.5,4.39,3.74,6.59.92,1.63,2.69,2.95,4.48,3.45s4.19.27,5.78-.76,3.01-2.57,3.45-4.48.27-3.98-.76-5.78c-2.08-3.66-4.16-7.32-6.24-10.99-.73-1.28-1.41-2.7-2.49-3.73-1.14-1.09-2.4-1.84-3.91-2.29-1.17-.35-2.99-.36-4.16.01s-2.52,1.03-3.41,1.97c-2.48,2.63-3.1,6.55-1.24,9.72,1.02,1.74,2.69,3.04,4.63,3.57,1.34.37,2.72.37,4.06,0,1.61-.44,2.15-.98,3.42-2,1.4-1.12,2.2-3.59,2.2-5.3,0-1.84-.82-4.04-2.2-5.3s-3.31-2.29-5.3-2.2l-1.99.27c-1.27.36-2.37,1-3.31,1.93h0Z"/>
  <path class="cls-2" d="M328.31,1468.65l.34.34c.68.73,1.48,1.25,2.41,1.55.89.47,1.86.68,2.89.65,1.03.04,2-.18,2.89-.65.93-.3,1.73-.82,2.41-1.55l1.17-1.52c.68-1.17,1.02-2.43,1.02-3.79l-.27-1.99c-.36-1.27-1-2.37-1.93-3.31l-.34-.34c-.68-.73-1.48-1.25-2.41-1.55-.89-.47-1.86-.68-2.89-.65-1.03-.04-2,.18-2.89.65-.93.3-1.73.82-2.41,1.55l-1.17,1.52c-.68,1.17-1.02,2.43-1.02,3.79l.27,1.99c.36,1.27,1,2.37,1.93,3.31h0Z"/>
  <path class="cls-2" d="M328.53,1459.27l-.2.15,3.31-1.93c-.14.08-.3.12-.46.13l1.99-.27-.24-.02,1.99.27-.24-.06,1.79.76c-.16-.06-.31-.14-.44-.25l1.52,1.17-.18-.17,1.17,1.52-.14-.2.76,1.79c-.08-.14-.12-.3-.13-.46l.27,1.99.03-.25-5.51,7.23.26-.09-1.99.27c.18-.04.36-.04.54,0l-1.99-.27.27.07-1.79-.76c.18.06.34.16.48.27l-1.52-1.17.2.19-1.17-1.52c.12.14.22.3.28.47l-.76-1.79.06.27-.27-1.99v.31c.09-.66.18-1.33.27-1.99l-.06.3.76-1.79c-.07.2-.16.37-.3.53l1.17-1.52-.22.22,1.52-1.17c-.16.14-.33.24-.53.31l1.79-.76-.3.07,1.99-.27h-.31c.66.1,1.33.19,1.99.28-.21-.02-.4-.08-.58-.17l1.79.76-.26-.17,1.52,1.17-.22-.21,1.17,1.52c-.14-.16-.25-.33-.33-.52l.76,1.79-.09-.29.27,1.99c-.05-.2-.05-.41-.02-.61l-7.5,7.5h.17c-1.77-.74-3.54-1.47-5.3-2.2l.12.09-1.93-3.31.07.16-.27-1.99v.19c.1-.66.19-1.33.28-1.99l-.05.19.76-1.79-.11.16,2.69-2.69-.17.09,3.79-1.02h-.34c1.26.33,2.52.67,3.79,1.01l-.31-.15,1.52,1.17c-.2-.15-.37-.32-.52-.51l1.17,1.52c-.12-.15-.22-.32-.3-.5l.76,1.79c-.08-.17-.13-.36-.15-.55l.27,1.99.02-.24-1.02,3.79.1-.2-2.69,2.69.2-.14-3.79,1.02.38-.02-1.99-.27.26.1-3.31-1.93.2.18-1.17-1.52.15.23-.76-1.79.09.27-.27-1.99.02.28.27-1.99-.05.28.76-1.79-.12.25,1.17-1.52-.19.21,1.52-1.17-.23.16,1.79-.76c-.17.09-.35.14-.54.16l1.99-.27h-.29c.66.09,1.33.18,1.99.27-.19-.01-.38-.06-.55-.14l1.79.76-.28-.17,1.52,1.17c-.18-.13-.33-.29-.46-.47l1.17,1.52c-.13-.18-.24-.38-.32-.59l.76,1.79c-.08-.19-.13-.38-.15-.58l.27,1.99v-.28c-.08.66-.17,1.33-.26,1.99.02-.18.07-.36.15-.53l-.76,1.79.13-.22-1.17,1.52.16-.17-1.52,1.17.19-.11-1.79.76.21-.03h-3.99l.23.06-3.31-1.93.21.17-1.17-1.52.12.23-.76-1.79.04.28-.27-1.99-.02.3.27-1.99c-.03.2-.08.4-.15.59l3.45-4.48-.18.13,1.79-.76-.22.03h3.99l-.22-.05,1.79.76-.2-.12,1.52,1.17-.14-.17,1.93,3.31-.05-.22v3.99l.06-.21-1.93,3.31.15-.17-1.52,1.17.2-.11-1.79.76.23-.04h-3.99l.22.04-1.79-.76.18.13-2.69-2.69.1.23-1.02-3.79-.02.24,1.02-3.79-.12.22,1.17-1.52-.2.19,1.52-1.17-.25.13,1.79-.76-.27.05h3.99l-.27-.05,1.79.76-.28-.16,1.52,1.17-.23-.22,1.17,1.52c-.14-.18-.24-.37-.32-.58l.76,1.79c-.1-.3-.18-.59-.23-.9l.27,1.99c-.02-.18-.02-.36,0-.54l-.27,1.99c.04-.27.09-.5.19-.75l-.76,1.79.12-.2-1.17,1.52.15-.16-1.52,1.17.17-.11-1.79.76.2-.06-1.99.27h.23c-.66-.08-1.33-.17-1.99-.26l.26.1-3.31-1.93.21.18-1.17-1.52c.13.15.23.32.29.51l-.76-1.79c.07.19.12.39.16.6l-.27-1.99.02.25.27-1.99c0,.17-.05.33-.13.48l1.93-3.31-.15.13,5.3-2.2h-.2c1.77.74,3.54,1.47,5.3,2.2l-.22-.17,1.17,1.52c-.16-.19-.28-.4-.37-.64l.76,1.79-.09-.36.27,1.99v-.36c-.1.66-.19,1.33-.28,1.99l.08-.35-.76,1.79.14-.27-1.17,1.52.21-.23-1.52,1.17.25-.17-1.79.76.28-.1-1.99.27.3-.02-1.99-.27.29.07-1.79-.76.22.14-1.52-1.17.16.2-1.93-3.31c.09.15.13.32.14.5l-.27-1.99-.03.25,1.02-3.79-.11.22,1.17-1.52-.18.17,11.78,1.52-.14-.22.76,1.79c-.08-.16-.12-.33-.13-.5l.27,1.99v-.26c-.09.66-.18,1.33-.27,1.99.02-.18.06-.35.13-.51l-.76,1.79c.07-.16.16-.31.28-.45l-1.17,1.52.19-.18-1.52,1.17.22-.14-1.79.76.25-.09-8.47-3.45c.15.19.26.41.35.64l-.76-1.79c.08.23.13.47.15.71l-.27-1.99v.36c.09-.66.18-1.33.26-1.99l-.06.36,9.23-5.24-.3-.07,1.79.76-.27-.15,1.52,1.17-.23-.21,1.17,1.52-.18-.25.76,1.79c-.1-.18-.15-.37-.16-.58l.27,1.99.04-.3-1.02,3.79.11-.24-1.17,1.52c.1-.15.22-.28.38-.37l-1.52,1.17.24-.12-1.79.76.26-.06-1.99.27h.26c-.66-.1-1.33-.19-1.99-.28l.26.06-1.79-.76.23.12-1.52-1.17.19.19-1.17-1.52.12.23-.76-1.79.06.26-.27-1.99v.27c.09-.66.18-1.33.27-1.99l-.05.26.76-1.79-.11.24,1.17-1.52-.17.2,1.52-1.17-.22.14,10.26,2.69-.15-.2.76,1.79-.08-.24.27,1.99v-.25c-.1.66-.19,1.33-.28,1.99l.05-.25-.76,1.79.11-.24-1.17,1.52.16-.2-1.52,1.17.2-.14-1.79.76.24-.07-1.99.27h.25c-.66-.08-1.33-.17-1.99-.25l.23.09-1.79-.76.2.16-1.52-1.17.16.2-1.17-1.52.11.23-.76-1.79.05.25-.27-1.99-.02.25,1.02-3.79-.1.23,11.78-1.52-.25-.29,1.17,1.52c-.16-.19-.3-.41-.4-.64l.76,1.79-.1-.36.27,1.99v-.31c-.09.66-.18,1.33-.27,1.99l.07-.3-.76,1.79.15-.26-1.17,1.52.21-.2-3.31,1.93.27-.11-1.99.27h.25c-1.26-.33-2.52-.67-3.79-1.02l.22.11-1.52-1.17.18.17-1.17-1.52.11.22-1.02-3.79.02.23,1.02-3.79-.1.21,13.71,1.79c-.06-.21-.11-.43-.14-.64l.27,1.99-.02-.32-.27,1.99.04-.31-.76,1.79.13-.29-1.17,1.52.16-.17-1.52,1.17.2-.11-1.79.76.23-.05-1.99.27.23.02-1.99-.27.2.08-3.31-1.93.14.14-1.93-3.31.06.2,12.54-7.3-.21-.2,1.17,1.52-.12-.27,1.02,3.79v-.29c-.1.66-.19,1.33-.28,1.99l.1-.27-14.46-3.99c-1.17,3.92-.67,8.22,1.25,11.82s5.18,5.99,8.89,7.25c4.18,1.42,9.37.78,12.4-2.64,2.66-3,4.34-7.24,3.84-11.29l-7.5,7.5h.3c-.66-.09-1.33-.18-1.99-.26.19.02.37.08.55.16l-1.79-.76.25.15-1.52-1.17c.25.2.43.4.63.65l-1.17-1.52c.18.28.33.55.47.86l-.76-1.79c.57,1.43.83,3.01,1.05,4.53l-.27-1.99c.06.46.11.91.16,1.37l14.73-1.99c-1.55-3.87-3.25-7.67-5.23-11.34l-10.26,10.26c.2.13.39.27.58.42l-1.52-1.17c.74.6,1.4,1.27,1.99,2.02l-1.17-1.52c.57.77,1.04,1.58,1.44,2.45l-.76-1.79c.42,1,.71,2.01.87,3.08l-.27-1.99c.11.93.14,1.85.03,2.79l.27-1.99c-.06.31-.13.59-.24.88l.76-1.79c-.08.18-.17.35-.3.5l1.17-1.52-.2.2,1.52-1.17-.23.16,1.79-.76-.27.1,1.99-.27c-.2.05-.41.05-.61,0l1.99.27-.28-.11,1.79.76-.27-.16,1.52,1.17c-.18-.13-.34-.29-.48-.46l1.17,1.52c-.36-.48-.63-.97-.87-1.52l.76,1.79c-.1-.22-.16-.44-.2-.68l.27,1.99v-.35c-.09.66-.18,1.33-.27,1.99l.08-.28-.76,1.79.15-.25-1.17,1.52.21-.19-1.52,1.17.25-.11-3.79,1.02h.27c-1.26-.34-2.52-.68-3.79-1.03l.31.15-1.52-1.17.25.25-1.17-1.52c.14.17.26.35.35.55l-.76-1.79c.09.2.16.4.19.62l-.27-1.99.02.31.27-1.99c0,.21-.06.41-.15.6l.76-1.79-.16.23,1.17-1.52-.21.18,1.52-1.17-.25.13,1.79-.76-.27.07,1.99-.27h-.27c.66.1,1.33.19,1.99.28l-.26-.05,1.79.76-.23-.12,1.52,1.17-.18-.2,1.93,3.31-.09-.22.27,1.99v-.23c-.09.66-.18,1.33-.27,1.99l.08-.22-.76,1.79.13-.2-1.17,1.52.17-.16-1.52,1.17.2-.11-1.79.76.21-.05h-3.99l.2.04-1.79-.76.18.13-2.69-2.69.16.28-.76-1.79.07.32-.27-1.99c.02.21.02.41-.02.62l.27-1.99-.08.3.76-1.79-.13.27,1.17-1.52-.19.24,1.52-1.17-.25.17,1.79-.76-.3.09,1.99-.27h-.31c.66.09,1.33.18,1.99.27l-.28-.09,3.31,1.93-.22-.19,1.17,1.52-.11-.25,1.02,3.79v-.27c-.09.66-.18,1.33-.27,1.99l.09-.26-.76,1.79.16-.23-2.69,2.69.22-.17-1.79.76.27-.08-1.99.27.28.03-3.79-1.02.25.12-1.52-1.17.21.18-1.17-1.52.16.24-.76-1.79.09.27-.27-1.99v.28c.1-.66.19-1.33.28-1.99l-.1.32.76-1.79-.19.28,1.17-1.52-.26.22,1.52-1.17-.31.15,1.79-.76-.34.06,1.99-.27-.26-.02,1.99.27-.24-.08,3.31,1.93-.2-.16,1.17,1.52-.12-.24,1.02,3.79v-.26c-.08.66-.17,1.33-.26,1.99l.11-.26-1.93,3.31.18-.23-1.52,1.17.24-.17-1.79.76.28-.08-1.99.27h.26c-.66-.08-1.33-.17-1.99-.26l.25.08-1.79-.76.22.14-1.52-1.17.19.18-1.17-1.52c.12.14.2.29.26.46l-.76-1.79.06.25-.27-1.99v.26c.09-.66.18-1.33.27-1.99l-.06.25.76-1.79-.13.22,1.17-1.52-.18.16,1.52-1.17-.21.1,1.79-.76-.23.04,1.99-.27h-.24c.66.08,1.33.17,1.99.26-.16-.02-.31-.07-.46-.15l1.79.76-.2-.13,1.52,1.17-.16-.16,1.17,1.52-.12-.19.76,1.79-.06-.22.27,1.99v-.24c-.09.66-.18,1.33-.27,1.99l.06-.2-.76,1.79.12-.17-1.17,1.52.16-.13-1.52,1.17.19-.1-1.79.76.21-.06-1.99.27c.14-.03.29-.03.43,0l-1.99-.27.21.05-1.79-.76.18.09-1.52-1.17.15.13-1.17-1.52.11.17-.76-1.79.06.2-.27-1.99v.26c.08-.66.17-1.33.26-1.99l-.08.23.76-1.79-.14.2,1.17-1.52-.19.17,1.52-1.17-.23.13,1.79-.76c-.17.07-.35.12-.53.13l1.99-.27h-.28c.66.09,1.33.17,1.99.26l-.27-.06,1.79.76c-.19-.07-.37-.17-.52-.31l1.52,1.17-.23-.23,1.17,1.52c-.21-.29-.36-.55-.52-.87l.76,1.79c-.16-.41-.3-.82-.41-1.25l.27,1.99-.03-.28-.27,1.99.04-.26-.76,1.79.14-.21-2.69,2.69.23-.11-3.79,1.02.25.02-3.79-1.02.25.12-1.52-1.17.22.2-1.17-1.52.16.24-.76-1.79c.1.22.16.44.17.68l-.27-1.99-.02.35.27-1.99-.1.33.76-1.79-.19.29,1.17-1.52-.22.19,1.52-1.17-.26.13,1.79-.76-.29.06,1.99-.27h-.29c.66.08,1.33.17,1.99.26l-.27-.09,1.79.76-.23-.17,2.69,2.69-.14-.2.76,1.79-.06-.24.27,1.99v-.25c-.09.66-.17,1.33-.26,1.99l.07-.24-.76,1.79.12-.21-1.17,1.52.18-.15-3.31,1.93.23-.08-1.99.27.32.02-3.79-1.02.29.15-1.52-1.17.24.24-1.17-1.52.18.29-.76-1.79.09.26-.27-1.99c.04.18.05.36.02.55l.27-1.99c-.02.18-.07.36-.15.53l.76-1.79-.13.24,1.17-1.52c-.1.15-.22.28-.37.39l1.52-1.17-.22.13,1.79-.76-.25.08,1.99-.27-.27.02,1.99.27-.29-.05,1.79.76-.27-.12,1.52,1.17c-.17-.11-.32-.24-.43-.41l1.17,1.52-.14-.26.76,1.79-.09-.29.27,1.99-.02-.3-.27,1.99.05-.29-.76,1.79.13-.27-1.17,1.52c.11-.17.25-.31.43-.41l-1.52,1.17.27-.13-1.79.76.29-.08-1.99.27.3-.02-1.99-.27c.2,0,.39.06.57.16l-1.79-.76.24.18-1.52-1.17.19.23-1.17-1.52.14.26-.76-1.79.09.29-.27-1.99c.04.2.05.4.01.6l.27-1.99-.08.29.76-1.79-.14.26,1.17-1.52-.2.23,1.52-1.17-.25.17,1.79-.76-.29.08,1.99-.27h-.24c.66.08,1.33.16,1.99.25l-.22-.09,3.31,1.93-.18-.15,1.17,1.52c-.11-.12-.19-.27-.24-.43l.76,1.79-.05-.25.27,1.99v-.25c-.08.66-.17,1.33-.26,1.99l.07-.23-.76,1.79.14-.2-2.69,2.69.2-.15-1.79.76.23-.09-1.99.27c.16-.04.33-.04.49,0l-1.99-.27.24.08-1.79-.76.22.12-1.52-1.17.19.16-1.17-1.52.15.2-.76-1.79.1.23-.27-1.99.04.32.27-1.99-.05.31.76-1.79c-.07.21-.17.4-.32.56l1.17-1.52-.25.22,1.52-1.17-.29.16,1.79-.76-.32.08,1.99-.27h-.32c.66.09,1.33.18,1.99.27l-.32-.07,1.79.76c-.21-.07-.4-.17-.57-.31l1.52,1.17-.24-.23,1.17,1.52c-.15-.17-.26-.35-.34-.56l.76,1.79-.08-.29.27,1.99v-.31c-.1.66-.19,1.33-.28,1.99l.06-.29-.76,1.79.14-.24-2.69,2.69.23-.17-1.79.76.25-.04h-3.99l.25.06-1.79-.76.22.15-1.52-1.17.17.21-1.93-3.31.1.25-.27-1.99.02.27.27-1.99-.09.31.76-1.79-.17.27,1.17-1.52-.23.23,1.52-1.17c-.18.14-.37.24-.58.32l1.79-.76-.32.08,1.99-.27c-.22.04-.44.05-.66.03l1.99.27c-.22-.02-.42-.09-.62-.19l1.79.76-.27-.18,1.52,1.17-.19-.2,1.17,1.52-.14-.24.76,1.79-.09-.27.27,1.99c-.04-.18-.05-.37-.01-.55l-.27,1.99.09-.26-.76,1.79.16-.23-1.17,1.52.19-.15-3.31,1.93.22-.09-1.99.27c.16-.04.32-.04.48,0l-1.99-.27.23.08-1.79-.76.2.13-1.52-1.17.15.17-1.93-3.31.09.22-.27-1.99v.32c.1-.66.19-1.33.27-1.99l-.08.31.76-1.79c-.07.19-.18.36-.32.51l1.17-1.52-.22.21,1.52-1.17c-.16.13-.34.22-.53.28l1.79-.76-.29.06,1.99-.27h-.29c.66.09,1.33.18,1.99.26l-.29-.07,1.79.76-.23-.13,1.52,1.17-.19-.18,1.17,1.52-.14-.22.76,1.79c-.08-.16-.12-.33-.13-.51l.27,1.99v-.26c-.07.66-.16,1.33-.25,1.99l.07-.24-.76,1.79.13-.21-1.17,1.52.2-.16-3.31,1.93.21-.08-1.99.27h.22c-.66-.09-1.33-.18-1.99-.27l.22.06-1.79-.76.2.12-1.52-1.17.17.16-1.17-1.52c.1.11.18.24.22.39l-1.02-3.79.03.21.27-1.99-.04.2.76-1.79-.12.19,2.69-2.69-.29.19,1.79-.76c-.2.08-.41.13-.63.15l1.99-.27c-.2.02-.4,0-.6-.03l1.99.27-.29-.07,1.79.76c-.18-.06-.35-.15-.5-.27l1.52,1.17-.2-.2,1.17,1.52-.15-.24.76,1.79-.07-.24.27,1.99v-.25c-.08.66-.17,1.33-.26,1.99l.07-.25-.76,1.79.12-.23-1.17,1.52.17-.19-1.52,1.17.2-.14-1.79.76.22-.08-1.99.27h.23c-.66-.1-1.33-.19-1.99-.27l.23.08-1.79-13.71-.33.17,1.79-.76c-.23.1-.47.17-.71.21l1.99-.27c-.25.04-.5.04-.74.02l1.99.27c-.25-.03-.49-.09-.72-.18l1.79.76-.23-.11,1.52,1.17-.18-.17,1.93,3.31-.08-.23v3.99l.04-.24-.76,1.79.13-.22-1.17,1.52.2-.18-3.31,1.93.25-.1-1.99.27h.43c-.66-.09-1.33-.18-1.99-.27l.42.12-1.79-.76.41.19,1.79-13.71c-.21.1-.42.16-.64.19l1.99-.27c-.22.03-.45.04-.67.01l1.99.27c-.23-.03-.44-.08-.66-.16l1.79.76c-.21-.08-.41-.19-.59-.32l1.52,1.17c-.18-.13-.35-.29-.48-.47l-3.31,12.54c.19-.08.39-.12.6-.13l-1.99.27h.31c-.66-.08-1.33-.17-1.99-.26.21.02.41.07.6.14l-1.79-.76c.19.08.37.18.53.3l-1.52-1.17c.16.13.3.28.41.45v-10.61l-.21.2,1.52-1.17-.25.15,1.79-.76c-.18.08-.37.13-.57.14l1.99-.27-.29-.02,1.99.27-.28-.07,1.79.76-.26-.13-3.79,13.98c.27,0,.54.02.81.06l-1.99-.27c.54.1,1.04.24,1.55.45l-1.79-.76c.37.18.71.37,1.05.6l-1.52-1.17c.18.13.34.28.47.46l-1.17-1.52.13.28-1.02-3.79v.31c.35-1.26.69-2.52,1.03-3.79l-.1.23,1.17-1.52-.17.16,1.52-1.17-.22.11,1.79-.76-.26.06,1.99-.27c-.19.03-.38.03-.56,0l1.99.27c-.2-.01-.39-.06-.57-.15l1.79.76-.26-.18,2.69,2.69-.15-.23.76,5.78.05-.24-3.45,4.48.19-.13-1.79.76c.21-.06.41-.09.63-.11l-1.99.27c.26-.03.53-.04.79-.02l-1.99-.27c.26.02.51.09.74.21l-1.79-.76.23.17-1.52-1.17.19.22-1.17-1.52.14.25-.76-1.79.08.27-.27-1.99v.27c.1-.66.19-1.33.28-1.99l-.07.25.76-1.79-.16.22,2.69-2.69-.25.17,1.79-.76-.28.08,1.99-.27h-.3c.66.09,1.33.18,1.99.27-.33-.06-.61-.14-.93-.27l1.79,13.71c.16-.13.34-.23.54-.3l-1.79.76.3-.08-1.99.27c.21-.03.41-.04.62,0l-1.99-.27c.21.03.41.09.59.18l-1.79-.76.26.16-1.52-1.17.23.21-1.17-9.09-.11.24,1.17-1.52-.18.2,1.52-1.17-.22.15,1.79-.76c-.16.09-.33.14-.52.15l1.99-.27-.27-.02,1.99.27-.25-.08,1.79.76-.22-.15,2.69,2.69-.14-.19.76,1.79-.08-.22.27,1.99c-.03-.16-.03-.32,0-.47l-.27,1.99.08-.23-.76,1.79.12-.2-1.17,1.52.16-.17-1.52,1.17.2-.12-1.79.76.23-.06-1.99.27.23.02-3.79-1.02.21.09-1.52-1.17.18.15-1.17-1.52c.11.12.19.26.24.41l-.76-1.79.04.23-.27-1.99v.23c.08-.66.17-1.33.25-1.99l-.08.21,1.93-3.31-.15.18,7.3-1.93c-1.75-.7-3.69-.5-5.53-.63l1.99.27c-.42-.06-.75-.15-1.14-.3l1.79.76-.29-.18,1.52,1.17c-.19-.14-.35-.3-.49-.49l1.17,1.52-.17-.29.76,1.79-.11-.31.27,1.99-.03-.33-.27,1.99.05-.33-.76,1.79.11-.24-1.17,1.52.17-.2-1.52,1.17c.13-.12.28-.2.45-.26l-1.79.76.25-.05-1.99.27h.25c-.66-.09-1.33-.18-1.99-.27l.24.06-1.79-.76.2.13-1.52-1.17.16.2-1.93-3.31.09.27-.27-1.99v.28c.09-.66.18-1.33.26-1.99l-.08.28.76-1.79-.15.25,1.17-1.52-.21.22,1.52-1.17-.25.16,1.79-.76-.33.11,1.99-.27c-.23.05-.46.06-.7.03l1.99.27c-.36-.06-.67-.13-1.01-.25l1.79.76c-.21-.09-.4-.2-.58-.33l1.52,1.17-.24-.22,1.17,1.52-.18-.25.76,1.79-.1-.28.27,1.99v-.31c-.09.66-.18,1.33-.27,1.99l.06-.21-.76,1.79.11-.17-1.17,1.52.15-.13-1.52,1.17.19-.09-1.79.76.21-.05-1.99.27c.15-.02.3-.02.45,0l-1.99-.27.22.06-1.79-.76c.14.05.27.12.38.22l-1.52-1.17.14.16-1.17-1.52.1.2-.76-1.79.06.29-.27-1.99v.29c.08-.66.17-1.33.26-1.99l-.08.28.76-1.79c-.08.19-.18.36-.32.51l1.17-1.52-.22.21,1.52-1.17c-.16.13-.34.23-.54.31l1.79-.76-.3.08,1.99-.27c-.26.04-.52.04-.77-.01l1.99.27c-.26-.05-.51-.13-.74-.24l1.79.76c-.37-.19-.68-.39-1-.64l1.52,1.17-.25-.24,1.17,1.52c-.16-.18-.28-.38-.37-.6l.76,1.79-.07-.31.27,1.99.03-.3-1.02,3.79.17-.26-2.69,2.69.23-.15-1.79.76.25-.04h-3.99l.26.06-1.79-.76.26.14-1.52-1.17c.18.13.34.27.48.44l-1.17-1.52c.14.17.26.35.36.54l4.48-11.02c-.31.13-.59.2-.92.26l1.99-.27c-.33.02-.62.01-.96-.03l1.99.27c-.21-.04-.42-.09-.62-.17l1.79.76c-.31-.13-.57-.27-.84-.46l1.52,1.17c-.26-.21-.46-.42-.67-.68l1.17,1.52-.17-.27-1.17,9.09.24-.23-1.52,1.17c.18-.14.37-.24.58-.31l-1.79.76.32-.08-1.99.27c.22-.03.44-.03.66,0l-1.99-.27.32.09-1.79-.76.3.15,1.79-13.71c-.19.08-.38.14-.58.17l1.99-.27c-.32.04-.59.04-.9,0l1.99.27c-.31-.06-.58-.14-.88-.25l1.79.76c-.29-.14-.53-.29-.78-.48l1.52,1.17c-.16-.13-.3-.27-.44-.43l1.17,1.52c-.19-.25-.34-.48-.47-.77l.76,1.79c-.08-.19-.13-.38-.17-.59l-3.45,8.47.22-.12-1.79.76.25-.04-1.99.27.25.03-3.79-1.02.23.11-1.52-1.17.18.18,5.3-12.8-.3-.02,1.99.27-.29-.08,1.79.76c-.19-.07-.36-.18-.51-.31l1.52,1.17-.2-.22,1.17,1.52-.16-.25.76,1.79-.11-.28-1.93,7.3.22-.18-1.52,1.17.26-.13-1.79.76.28-.07c2.26-.58,3.97-2.24,4.86-4.34.98-2.33.67-4.43-.38-6.67-.2-.43-.4-.86-.6-1.28-4.32,2.52-8.63,5.05-12.95,7.57,2.1,2.72,4.41,5.15,7.56,6.7s6.24,2.2,9.83,2.46l-1.99-.27c.19.02.38.07.56.14l-1.79-.76.24.12-1.52-1.17.18.16-1.17-1.52.09.2-1.02-3.79v.24c.33-1.26.67-2.52,1.01-3.79l-.14.24,1.17-1.52c-.15.16-.32.3-.5.42l1.52-1.17c-.51.36-1.03.66-1.6.91-1.54.69-3.08,2.88-3.45,4.48-.44,1.91-.35,4.09.76,5.78,1.18,1.79,2.2,2.78,3.96,3.99l7.57-12.95c-.26-.14-.52-.29-.77-.43-3.42-1.92-8.35-.94-10.26,2.69s-.97,8.22,2.69,10.26c.26.14.52.29.77.43,3.42,1.92,8.35.94,10.26-2.69,2.02-3.82.77-7.88-2.69-10.26l-.3-.21,1.52,1.17c-.29-.25-.53-.49-.77-.79l1.17,1.52-.2-.31-2.69,10.26c4.28-1.91,7.29-6.5,5.32-11.17-1.02-2.43-2.95-4.13-5.5-4.86-1.36-.39-2.79-.33-4.19-.49l1.99.27c-1.25-.18-2.43-.51-3.6-.99l1.79.76c-1.03-.46-2-1.02-2.91-1.68l1.52,1.17c-.89-.69-1.69-1.46-2.41-2.34l1.17,1.52-.23-.3c-1.25-1.62-2.42-2.88-4.48-3.45-1.8-.49-4.19-.27-5.78.76s-3.01,2.57-3.45,4.48c-.47,2.07-.14,3.86.76,5.78.2.43.4.86.6,1.28l4.48-11.02c-1.68.43-2.77,1.24-4.06,2.31-1.85,1.54-2.81,5.04-1.93,7.3s1.9,3.95,3.92,5.23c1.6,1.01,3.01,1.29,4.88,1.44,1.2.1,2.76-.43,3.79-1.02,1.41-.83,2.44-2.1,3.07-3.59,1.14-2.7.63-6.11-1.55-8.19-2.83-2.7-6.82-3.18-10.23-1.32-3.02,1.64-4.15,5.28-3.45,8.47,1.25,5.64,7.93,9.54,13.45,7.58,2.87-1.02,4.95-3.12,5.37-6.24.37-2.77-.91-6.16-3.58-7.47-3.95-1.94-8.28-1.57-11.52,1.55-2.32,2.23-2.92,6.33-1.17,9.09,1.45,2.29,3.55,4.06,6.17,4.85,1.98.6,4.53.73,6.48-.06,2.26-.91,3.89-2.04,4.86-4.34s.84-4.59-.38-6.67c-2.64-4.54-8.47-6.49-12.86-3.11-2.59,2-3.71,5.43-2.85,8.6.65,2.42,2.36,4.37,4.42,5.72,3.86,2.53,8.88,2.14,12.24-1.01,4.08-3.81,3.31-10.66-1.31-13.63-4.01-2.58-9.4-1.15-11.91,2.77-1.45,2.26-1.4,5.16-.39,7.55,1.09,2.58,3.26,4.24,5.85,5.14,4.48,1.56,9.63-.44,11.5-4.86,2.28-5.39-1.67-11.76-7.71-11.61-2.99.08-5.8,1.66-7.35,4.22s-1.46,6.11-.02,8.78c1.21,2.25,3.54,3.95,5.99,4.6,1.65.44,3.31.32,4.97.43l-1.99-.27c.42.06.75.14,1.14.3,2.26.9,5.75-.09,7.3-1.93,1.77-2.1,2.67-4.18,2.3-6.92-.27-2-1.06-3.69-2.52-5.1-3.83-3.69-10.2-2.7-12.87,1.85-2.31,3.95-1.04,9.32,2.99,11.63s9.79.93,11.8-3.34c.74-1.57,1.13-3.03.89-4.78-.21-1.56-.85-3.22-2.06-4.31-3.14-2.81-7.93-3.88-11.64-1.34-2.53,1.73-4,4.34-3.58,7.47s2.51,5.13,5.37,6.24c3.13,1.22,6.64.31,9.06-1.91,2.86-2.62,2.99-7.15,1.18-10.35-1.66-2.93-5.16-4.49-8.42-4.29-1.7.1-3.13.42-4.6,1.27-2.71,1.55-4.04,4.7-3.63,7.72.56,4.2,4.38,7.01,8.49,7.06,3.57.05,6.65-1.93,8.02-5.19,1.71-4.06-.32-8.29-3.85-10.53-2.11-1.34-4.55-1.91-7.02-2.03-3.15-.14-6.53,2.42-7.23,5.51s.42,6.93,3.45,8.47c3.78,1.93,7.85,1.49,10.97-1.44,1.32-1.23,2.28-3.49,2.2-5.3-.09-2.12-.9-3.65-2.2-5.3-2.16-2.77-6.51-3.7-9.75-2.7-5.57,1.71-7.12,8.3-3.31,12.54,2.43,2.7,6.91,3.98,10.35,2.66,2.86-1.09,4.95-3.06,5.37-6.24.36-2.72-.89-6.24-3.58-7.47-1.53-.7-2.9-1.27-4.61-1.33-1.49-.06-3.16.37-4.46,1.13-3.05,1.78-4.88,5.78-3.78,9.23,1.92,6.03,8.86,7.37,13.97,4.66,2.64-1.4,3.96-4.64,3.58-7.47-.42-3.1-2.5-5.19-5.37-6.24s-6.12.11-8.17,2.08c-2.18,2.1-3.06,5.44-2.26,8.34,1.56,5.65,8.45,8.01,13.41,5.27,2.56-1.42,4.25-4.35,4.14-7.27-.12-3.35-2.15-6.23-5.21-7.52s-6.57-.69-8.94,1.66c-2.21,2.18-2.92,5.37-2.21,8.35,1.48,6.17,9.1,8.07,13.82,4.42,2.17-1.67,3.5-4.15,3.58-6.92.11-3.67-2.46-7.04-5.94-8.07-5.53-1.62-11,2.73-10.85,8.43.17,6.37,7.01,10.21,12.67,7.82,2.58-1.09,4.61-3.05,5.38-5.83.99-3.58-.58-7.38-3.69-9.36-2.49-1.58-6.04-1.67-8.52,0-3.12,2.11-4.61,5.77-3.6,9.46,1.5,5.49,8.44,8.82,13.45,5.54,2.58-1.69,4.3-4.42,4.33-7.56s-1.69-5.93-4.3-7.45c-5.46-3.18-12.92.72-12.78,7.25.06,2.83,1.61,5.94,4.19,7.3,2.77,1.46,5.86,1.43,8.57-.15,5.65-3.28,5.36-12.13-.25-15.29-5.02-2.83-11.66-.1-13.06,5.53-1.59,6.38,4.55,12.35,10.86,10.6,5.55-1.54,8.06-8.2,5.37-13.15-1.44-2.65-4.47-4.48-7.5-4.41-3.62.08-6.83,2.58-7.79,6.07-.89,3.22.22,6.66,2.85,8.69s6.36,2.49,9.4.79c5.53-3.07,5.91-10.99,1.01-14.78-2.58-1.99-6.22-2.33-9.07-.62-3.28,1.96-4.47,5.91-3.53,9.48,1.14,4.34,4.65,8.03,9.38,7.96,2.99-.05,5.83-1.62,7.43-4.14s1.65-6.07.05-8.63c-3.28-5.26-11.2-5.22-14.48.02s.5,11.83,6.3,12.61c2.99.4,5.88-.72,7.73-3.12,2.09-2.7,2.32-6.29.73-9.31-1.08-2.04-3.15-3.74-5.4-4.3-3.38-.85-6.76.44-8.85,3.15-2.26,2.92-2.25,6.93,0,9.85,2.04,2.64,5.68,3.85,8.91,2.88,2.87-.86,5.38-3.25,6.09-6.21s-.23-6.08-2.4-8.27c-2.54-2.56-6.78-2.99-9.88-1.24s-5.04,5.91-3.91,9.4c1.02,3.16,3.52,5.46,6.85,5.91s6.72-1.14,8.52-4.08c1.27-2.08,1.59-4.96.92-7.3-1.11-3.83-4.83-6.36-8.77-5.83-2.95.4-5.41,2.24-6.58,5-1.3,3.08-.7,6.67,1.75,9.05,2.16,2.1,5.45,2.9,8.33,2.01s5.17-3.26,5.99-6.23c.67-2.41.14-5.19-1.19-7.28-1.93-3.02-5.77-5.15-9.39-3.98-2.82.91-5.2,3.11-5.92,6.06-.64,2.64.03,5.27,1.34,7.59,2.53,4.48,8.28,6.82,12.89,3.89,6.32-4.02,5.17-13.36,1.88-18.98-1.53-2.62-3.6-4.59-6.05-6.32-2.59-1.83-6.99-1.12-9.09,1.17-2.31,2.52-2.81,6.05-1.17,9.09,1.38,2.56,2.64,5.18,3.78,7.85l-.76-1.79c.24.56.47,1.13.7,1.7.72,1.8,1.64,3.53,3.45,4.48,1.51.8,3.08,1.12,4.78.89,3.38-.45,6.87-3.65,6.5-7.37-.26-2.61-.53-5.42-1.48-7.9-1.58-4.13-4.74-7.27-9.43-7.33-1.83-.02-4.05.83-5.3,2.2s-2.44,3.38-2.2,5.3c.1.78.09,1.54-.01,2.32l.27-1.99c-.12.65-.29,1.25-.54,1.86l.76-1.79c-.27.6-.59,1.14-.98,1.67l1.17-1.52c-.24.3-.48.54-.77.78l1.52-1.17-.31.19,1.79-.76c-.25.12-.51.21-.78.25l1.99-.27c-.65.08-1.28.06-1.93-.02l1.99.27c-.61-.11-1.19-.27-1.78-.49l1.79.76c-.69-.3-1.31-.65-1.92-1.1l1.52,1.17c-.49-.39-.91-.81-1.32-1.29l1.17,1.52c-.39-.52-.72-1.05-1-1.64l.76,1.79c-.31-.73-.51-1.46-.63-2.24l.27,1.99c-.07-.65-.08-1.28-.02-1.94l-.27,1.99c.07-.52.18-1.01.33-1.52,1.12-3.76-1.35-8.34-5.24-9.23-4.19-.95-7.83,1.27-9.23,5.24-1.01,2.88.04,6.25,2.17,8.34,2.29,2.24,6.29,2.98,9.09,1.17s4.47-5.22,3.45-8.47c-1.57-4.96-7.22-7.48-11.87-4.87-3.71,2.09-4.84,6.37-3.81,10.31.75,2.88,3.35,4.99,6.24,5.37,2.7.36,6.26-.89,7.47-3.58.68-1.51,1.13-2.53,1.1-4.23-.04-2.07-.87-4.04-2.31-5.52-2.13-2.19-5.31-2.99-8.22-2.1-3.5,1.06-5.88,4.36-5.94,8-.05,2.74,1.21,4.92,2.96,6.9,1.55,1.77,4.08,2.36,6.3,2.06,2.09-.28,4.58-1.5,5.48-3.58.64-1.5,1.16-2.58,1.15-4.27-.01-1.46-.43-3.01-1.18-4.27-1.52-2.55-4.34-4.21-7.33-4.18s-5.74,1.75-7.19,4.37c-1.38,2.48-1.59,6.16.19,8.52,1.16,1.55,2.48,2.99,4.48,3.45s4.06.33,5.78-.76c3.36-2.12,4.93-5.95,3.93-9.83-1.13-4.41-5.99-6.93-10.29-5.83-3.64.93-6.68,4.46-6.53,8.33s2.71,7.52,6.64,8.49c1.84.45,4.14.3,5.78-.76,1.54-.99,3.14-2.6,3.45-4.48.44-2.75.37-5.44-1.19-7.85-.9-1.39-2.05-2.42-3.59-3.07-1.43-.6-3.38-.95-4.88-.38-2.85,1.09-5.33,3.02-6.17,6.1-.66,2.42-.46,5.12.9,7.28,2.64,4.17,8.17,4.89,11.78,1.52,3.36-3.13,3.26-8.77.03-11.95-3.91-3.85-10.53-2.79-13.33,1.83-2.11,3.48-1.41,8.2,1.42,11.07,1.99,2.03,4.98,2.85,7.72,2.1s4.79-3.08,5.51-5.85c1.16-4.41-1.53-9.45-5.92-10.77s-8.92,1.31-10.36,5.67c-.88,2.67-.48,5.85.93,8.28,2.36,4.06,7.64,5.68,11.74,3.21,5.08-3.07,5.43-10.66.24-13.84-4.53-2.77-10.7-.34-12.04,4.83s2.68,10.04,7.84,10.04c5.53,0,9.23-5.66,7.75-10.82s-7.26-7.48-11.78-4.91c-3.63,2.06-5.04,6.47-3.92,10.36s4.79,6.81,8.86,6.88,7.67-2.67,8.65-6.58c1.52-6.09-4.16-11.97-10.32-10.27-5.4,1.49-7.2,7.87-4.52,12.41,1.19,2.02,3.19,3.72,5.48,4.35,3.42.94,7.14-.48,8.97-3.52,3.04-5.02-.44-12.31-6.68-12.07-4.28.17-7.19,3.31-7.5,7.5s2.7,7.88,6.42,9.04,7.5-.13,9.82-3.13,2.59-6.97.6-10.21-6.46-5.16-10.22-3.89c-1.58.54-2.87,1.35-3.9,2.69-1.1,1.43-1.39,2.75-1.61,4.54-.38,3.05,1.91,6.35,4.46,7.76,1.66.91,3.52,1.28,5.38,1.03,2-.27,3.33-1.06,4.96-2.34,1.41-1.1,2.2-3.61,2.2-5.3,0-1.84-.82-4.04-2.2-5.3s-3.31-2.29-5.3-2.2c-2.12.09-3.65.9-5.3,2.2h0Z"/>
  <path class="cls-2" d="M336.29,1463.47c3.92,0,7.68-3.45,7.5-7.5s-3.3-7.5-7.5-7.5c-3.92,0-7.68,3.45-7.5,7.5s3.3,7.5,7.5,7.5h0Z"/>
  <path class="cls-2" d="M353.72,1456.51c-.38-.67-.84-1.26-1.31-1.87s-.96-1.27-1.56-1.81c-1.12-1-2.36-1.99-3.75-2.6-.99-.44-2.01-.92-3.07-1.19-1.12-.28-2.31-.41-3.45-.52-1.63-.15-3.24.08-4.86.35-1.43.24-2.88.83-4.12,1.55-1.75,1.01-3.35,2.57-4.35,4.34-1.87,3.33-1.93,7.07-1.22,10.72.09.48.23.95.4,1.41.37.97.74,2.03,1.32,2.91s1.19,1.74,1.97,2.41c1.36,1.17,2.57,1.85,4.28,2.45s4.2.17,5.78-.76,3.04-2.69,3.45-4.48c.44-1.92.34-4.07-.76-5.78s-2.56-2.78-4.48-3.45c-.12-.04-.24-.08-.35-.13l1.79.76c-.22-.11-.42-.23-.62-.38l1.52,1.17c-.24-.2-.44-.42-.64-.66l1.17,1.52c-.27-.37-.47-.75-.66-1.16l.76,1.79c-.3-.75-.48-1.51-.59-2.31l.27,1.99c-.1-.81-.12-1.6-.02-2.41l-.27,1.99c.08-.5.21-.97.4-1.44l-.76,1.79c.15-.33.33-.63.55-.92l-1.17,1.52c.22-.26.45-.5.72-.71l-1.52,1.17c.38-.29.78-.52,1.22-.71l-1.79.76c.65-.26,1.31-.42,2-.52l-1.99.27c.93-.11,1.87-.11,2.8,0l-1.99-.27c.82.11,1.61.3,2.38.61l-1.79-.76c.69.3,1.32.67,1.92,1.12l-1.52-1.17c.52.42.98.88,1.4,1.4l-1.17-1.52c.27.35.51.72.73,1.11.91,1.63,2.7,2.96,4.48,3.45s4.19.27,5.78-.76,3.01-2.57,3.45-4.48.26-3.97-.76-5.78h0Z"/>
  <path class="cls-2" d="M274.44,1438.88c-.02-.41-.01-.81.04-1.21l-.27,1.99c.08-.56.23-1.11.44-1.64l-.76,1.79c.22-.52.51-1.01.85-1.46l-1.17,1.52c.25-.32.53-.61.83-.88.73-.68,1.25-1.48,1.55-2.41.47-.89.68-1.86.65-2.89.04-1.03-.18-2-.65-2.89-.3-.93-.82-1.73-1.55-2.41l-1.52-1.17c-1.17-.68-2.43-1.02-3.79-1.02l-1.99.27c-1.27.36-2.37,1-3.31,1.93-.83.72-1.49,1.69-2.13,2.56-.49.68-.79,1.43-1.11,2.2s-.65,1.48-.79,2.29c-.15.87-.29,1.75-.34,2.64-.02.27-.02.54,0,.81-.04,1.03.18,2,.65,2.89.3.93.82,1.73,1.55,2.41.68.73,1.48,1.25,2.41,1.55.89.47,1.86.68,2.89.65l1.99-.27c1.27-.36,2.37-1,3.31-1.93l1.17-1.52c.68-1.17,1.02-2.43,1.02-3.79h0Z"/>
  <path class="cls-2" d="M1490.65,3c1.93,0,1.93-3,0-3s-1.93,3,0,3h0Z"/>
  <path class="cls-1" d="M2513.97,209.92c1.93,0,1.93-3,0-3s-1.93,3,0,3h0Z"/>
</svg>